<?xml version="1.0" encoding="utf-8"?>
<svg width="3.33333in" height="3.33333in" viewBox="0 0 1000 1000" xmlns="http://www.w3.org/2000/svg">
  <path id="Selection" stroke="none" stroke-width="1" d="M 496 10.42 C 503.05 9.59 502.88 10.69 509 10.96 C 524.79 11.65 540.11 14.51 555 19.95 C 575.15 27.32 593.04 37.75 609 52.17 C 662.58 100.56 676.76 178.18 646.11 243 C 635.2 266.07 617.33 286.88 597 302.11 C 591.93 305.91 584.57 310.67 579 313.69 C 576.5 315.05 571.49 317.08 570.02 319.39 C 568.78 321.34 569 324.73 569 327 C 569 327 569 530 569 530 C 568.98 543.63 561.97 547.63 550 552.19 C 534.12 558.23 511.96 560.19 495 560 C 495 560 483 559 483 559 C 472.2 558.48 455.86 554.95 446 550.56 C 441.14 548.4 435.15 544.79 432.57 539.99 C 430.78 536.65 431.01 533.64 431 530 C 431 530 431 327 431 327 C 431 324.73 431.22 321.34 429.98 319.39 C 428.51 317.08 423.5 315.05 421 313.69 C 415.43 310.67 408.07 305.91 403 302.11 C 382.55 286.79 365.81 266.88 354.37 244 C 318.85 172.95 342.26 83.41 408 38.75 C 427.58 25.44 449.73 16.74 473 12.61 C 473 12.61 496 10.42 496 10.42 Z" style="fill: rgb(184, 8, 8);"/>
  <path id="Selection" stroke="none" stroke-width="1" d="M 21 776.65 C 26.82 775.44 41.28 776 48 776 C 48 776 99 776 99 776 C 99 776 260 776 260 776 C 260 776 766 776 766 776 C 766 776 937 776 937 776 C 937 776 971 776 971 776 C 976.39 776.03 980.67 776.23 984.81 780.22 C 989.85 785.07 989.99 791.5 990 798 C 990 798 990 875 990 875 C 990 906.3 993.64 937.37 971.7 963 C 967.34 968.1 962.49 972.44 957 976.28 C 949.63 981.44 945.42 983.23 937 986 C 928.79 988.7 918.64 989.99 910 990 C 910 990 218 990 218 990 C 218 990 89 990 89 990 C 58.65 989.95 30.16 974.3 17.31 946 C 12.43 935.25 10.02 920.78 10 909 C 10 909 10 811 10 811 C 10 798.66 7.1 782.5 21 776.65 Z" style="fill: rgb(0, 0, 185);"/>
  <path id="Selection" stroke="none" stroke-width="1" d="M 635 404 C 635 404 716 404 716 404 C 734.14 404.09 752.76 411.76 766 424.09 C 773.4 430.98 784.06 445.54 790.8 454 C 790.8 454 890.79 581 890.79 581 C 890.79 581 965.58 676 965.58 676 C 967.71 678.76 970.78 682.77 972.01 686 C 974.97 693.8 971.13 702.8 963 705.35 C 960.59 706.11 957.53 706 955 706 C 955 706 243 706 243 706 C 243 706 76 706 76 706 C 76 706 51 706 51 706 C 47.51 706 40.01 706.3 37 705.35 C 30.25 703.23 26.52 696.89 27.11 690 C 27.57 684.58 31.21 680.14 34.42 676 C 34.42 676 48.6 658 48.6 658 C 48.6 658 104.6 587 104.6 587 C 104.6 587 207.79 456 207.79 456 C 214.2 447.86 227.23 430.39 234 424.09 C 247.24 411.76 265.86 404.09 284 404 C 284 404 365 404 365 404 C 365 404 365 498 365 498 C 365 528.63 360.71 557.78 382.3 583 C 386.01 587.33 393.47 594.66 398 598.1 C 421.18 615.73 451.42 623 480 625.09 C 480 625.09 492 626 492 626 C 492 626 508 626 508 626 C 528.66 625.97 558.01 620.41 577 612.28 C 608.4 598.83 634.94 573.22 635 537 C 635 537 635 404 635 404 Z" style="fill: rgb(197, 197, 0);"/>
</svg>